<svg width="13" height="13" viewBox="0 0 13 13" fill="none" xmlns="http://www.w3.org/2000/svg">
<path d="M7.42473 6.49916L12.1122 0.911663C12.1908 0.818806 12.1247 0.677734 12.0033 0.677734H10.5783C10.4944 0.677734 10.414 0.715234 10.3587 0.77952L6.49258 5.38845L2.62651 0.77952C2.57294 0.715234 2.49258 0.677734 2.40687 0.677734H0.981867C0.860439 0.677734 0.794367 0.818806 0.872939 0.911663L5.56044 6.49916L0.872939 12.0867C0.855338 12.1074 0.844047 12.1327 0.840404 12.1596C0.836762 12.1865 0.840922 12.2139 0.852391 12.2386C0.86386 12.2632 0.882156 12.284 0.905107 12.2985C0.928057 12.3131 0.954698 12.3207 0.981867 12.3206H2.40687C2.4908 12.3206 2.57115 12.2831 2.62651 12.2188L6.49258 7.60988L10.3587 12.2188C10.4122 12.2831 10.4926 12.3206 10.5783 12.3206H12.0033C12.1247 12.3206 12.1908 12.1795 12.1122 12.0867L7.42473 6.49916Z" fill="black"/>
</svg>
